<svg width="259" height="30" viewBox="0 0 259 30" fill="none" xmlns="http://www.w3.org/2000/svg">
<path d="M45.8388 4.57623C45.2314 5.19918 42.8525 8.99918 42.8525 9.4041C42.8525 9.49754 44.5987 9.59098 46.7246 9.59098C48.8251 9.59098 50.7231 9.71557 50.875 9.84016C51.1027 10.027 51.204 12.2385 51.2546 18.468L51.3305 26.8779H53.9878H56.6451L56.7716 18.3123L56.8981 9.74672L59.8085 9.68443C61.4029 9.62213 62.9719 9.52869 63.2503 9.43525C63.7311 9.31066 66.5149 5.41721 66.6921 4.66967C66.7427 4.45164 63.3768 4.26475 56.6451 4.14016C46.6233 3.92213 46.5221 3.92213 45.8388 4.57623Z" fill="#6F6F6F"/>
<path d="M69.8051 4.32704C69.7292 4.57622 69.7039 9.74672 69.7292 15.8205L69.8051 26.8779L78.2831 26.9713C82.9397 27.0025 87.0142 26.9713 87.3179 26.8779C87.824 26.7221 90.9368 22.268 90.9368 21.7074C90.9368 21.5516 87.4191 21.427 83.1168 21.427H75.3221L75.145 20.4615C74.9172 19.0287 74.9425 18.7172 75.3981 18.1877C75.7271 17.7516 76.6381 17.6893 81.2947 17.6893C85.3186 17.6893 86.8876 17.5959 87.166 17.2844C87.824 16.6303 89.6714 13.7336 89.6714 13.3598C89.6714 13.1418 87.495 13.0172 82.5348 12.9549L75.3728 12.8615L75.145 11.709C74.7148 9.62213 74.7907 9.59098 81.32 9.59098C84.5087 9.59098 87.2672 9.49754 87.495 9.40409C87.6975 9.31065 88.5579 8.12704 89.4184 6.75655L90.9621 4.2959H82.0033C77.0684 4.2959 72.3359 4.20245 71.5007 4.10901C70.286 3.95327 69.9064 3.98442 69.8051 4.32704Z" fill="#6F6F6F"/>
<path d="M109.032 4.29586C101.515 4.4516 101.111 4.48274 99.668 5.19914C96.9601 6.53848 95.3404 8.22045 94.151 10.9614C93.6955 12.0205 93.5942 12.768 93.5942 15.3532C93.5942 18.2188 93.6449 18.5926 94.3282 20.1188C95.8466 23.4828 98.8582 25.9434 102.351 26.691C104.071 27.0336 113.132 27.1893 113.815 26.8467C114.397 26.5664 117.282 22.05 117.13 21.7073C117.029 21.5516 113.967 21.427 109.943 21.427C102.224 21.427 101.895 21.3647 100.199 19.527C99.1366 18.4057 98.6557 16.5991 98.8835 14.6057C99.0859 12.8926 99.997 11.3664 101.389 10.4319C102.376 9.80898 102.882 9.74668 108.171 9.59094C114.574 9.40406 114.119 9.59094 115.839 6.78766C117.181 4.66963 117.307 4.35815 117.079 4.23356C116.953 4.17127 113.359 4.20242 109.032 4.29586Z" fill="#6F6F6F"/>
<path d="M120.648 4.23361C120.344 4.45164 120.167 25.3828 120.445 26.473C120.572 26.9402 120.901 27.0336 122.824 27.0336C124.064 27.0336 125.228 26.9402 125.456 26.8467C125.81 26.691 125.861 25.9746 125.861 22.3615C125.861 18.7484 125.912 18.032 126.266 17.8762C126.823 17.5959 136.819 17.6582 137.148 17.9385C137.3 18.0631 137.502 19.8697 137.604 22.3303C137.679 24.6041 137.831 26.5976 137.907 26.7533C138.135 27.2205 142.463 27.0959 142.792 26.5976C142.994 26.3172 143.07 23.0467 143.019 15.1664L142.943 4.14017L140.792 4.04672C139.603 3.98443 138.363 4.04672 138.034 4.14017C137.452 4.32705 137.426 4.3582 137.604 7.25492C137.705 8.87459 137.705 10.6812 137.604 11.3041L137.452 12.3943L131.707 12.332L125.987 12.2385L125.912 8.34508C125.861 5.72869 125.734 4.38935 125.532 4.23361C125.152 3.92213 121.027 3.92213 120.648 4.23361Z" fill="#6F6F6F"/>
<path d="M158.33 4.17131C158.077 4.2959 158.001 6.88115 158.001 15.509C158.001 25.3828 158.052 26.691 158.406 26.8467C158.938 27.0959 175.312 27.0959 175.818 26.8467C176.425 26.5664 179.31 22.0812 179.133 21.7385C179.032 21.5516 175.995 21.4271 171.414 21.4271C163.088 21.4271 163.569 21.5516 163.569 19.4025C163.569 18.8107 163.721 18.25 163.898 18.0943C164.05 17.9697 165.012 17.8451 165.973 17.8451C166.96 17.8451 169.466 17.8139 171.566 17.7516L175.362 17.6893L176.678 15.6648C177.412 14.5746 177.994 13.5156 177.994 13.3287C177.994 13.1107 175.641 13.0172 170.908 13.0172H163.822L163.67 12.2697C163.594 11.8648 163.569 11.1172 163.62 10.65L163.696 9.74672L169.845 9.59099L175.995 9.43525L176.855 8.18935C177.336 7.5041 178.07 6.35164 178.5 5.6041L179.285 4.2959H170.984C166.429 4.2959 161.772 4.23361 160.659 4.14017C159.545 4.04672 158.482 4.07787 158.33 4.17131Z" fill="#6F6F6F"/>
<path d="M224.054 4.29587C217.195 4.45161 216.765 4.48275 215.322 5.19915C211.754 6.94341 209.881 9.49751 209.122 13.6401C208.869 15.1041 208.894 15.6647 209.249 17.3778C210.185 21.8942 212.437 24.6664 216.461 26.286C217.625 26.7221 219.068 26.8467 225.294 26.9713C232.177 27.0959 232.785 27.0336 233.088 26.5352C233.341 26.1303 233.367 24.5418 233.265 19.5893C233.189 16.0696 233.063 13.0795 233.012 12.9549C232.835 12.6123 222.434 12.6434 221.7 12.986C220.991 13.3287 218.435 17.0352 218.638 17.4401C218.714 17.5647 220.688 17.627 223.067 17.5959C226.23 17.5336 227.419 17.5959 227.622 17.8762C227.774 18.0942 227.85 18.9352 227.799 19.7762L227.723 21.2713L223.421 21.3647C218.739 21.4582 217.651 21.2401 216.234 19.9631C215.272 19.0598 214.462 17.0664 214.437 15.6336C214.437 13.5467 215.576 11.5844 217.474 10.3385C218.233 9.80899 219.144 9.71554 224.256 9.59095L230.178 9.43522L230.684 8.56308C230.962 8.09587 231.671 6.97456 232.278 6.10243C232.886 5.19915 233.316 4.35816 233.265 4.23357C233.189 4.07784 232.709 4.01554 232.203 4.04669C231.696 4.07784 228.027 4.20243 224.054 4.29587Z" fill="#6F6F6F"/>
<path d="M237.238 4.45161C237.137 4.60735 237.112 9.7467 237.188 15.8205L237.34 26.8779L246.02 26.9713C250.803 27.0024 254.852 26.9401 255.055 26.8156C255.561 26.4418 258.218 22.268 258.218 21.8008C258.218 21.5205 256.523 21.427 250.525 21.427C242.097 21.427 242.528 21.5205 242.528 19.5582C242.528 17.8139 243.008 17.5959 246.805 17.7205C248.703 17.7828 251.183 17.7828 252.322 17.7516L254.397 17.6893L255.814 15.5401C256.573 14.3877 257.206 13.3287 257.206 13.2041C257.206 13.1106 253.966 13.0172 250.019 13.0172C242.224 13.0172 242.528 13.0795 242.528 11.3041C242.528 9.52867 242.35 9.59096 248.829 9.59096C252.119 9.59096 254.928 9.46637 255.08 9.34178C255.51 8.96801 258.218 4.73194 258.218 4.42047C258.218 4.01555 237.491 4.0467 237.238 4.45161Z" fill="#6F6F6F"/>
<path d="M184.372 6.75655C183.536 8.12705 182.904 9.31066 183.005 9.4041C183.081 9.49754 185.991 9.59098 189.484 9.59098C196.165 9.59098 197.177 9.74672 198.721 11.0238C200.087 12.1139 200.619 13.4221 200.619 15.7271C200.619 17.4402 200.518 17.8451 199.86 18.8418C199.429 19.4959 198.594 20.3369 197.962 20.7107C196.924 21.3648 196.544 21.3959 192.419 21.3336L187.99 21.2713L187.915 17.1287L187.839 12.9861L185.131 13.0795L182.423 13.173V20.0254V26.8779L189.509 26.8467C197.101 26.8156 198.569 26.5975 200.998 25.1025C202.694 24.0123 204.39 21.9877 205.2 19.9631C205.883 18.3746 205.959 17.8451 205.959 15.3221C205.959 12.7992 205.883 12.3008 205.2 10.6811C204.137 8.12705 202.137 6.1959 199.505 5.10574C197.582 4.32705 197.278 4.2959 191.711 4.2959H185.915L184.372 6.75655Z" fill="#6F6F6F"/>
<path d="M1.2947 0.11713C-0.519215 0.790436 -0.396973 3.24627 1.47215 3.77715C2.10701 3.95842 2.79315 3.7901 3.36492 3.31101L3.60941 3.11248L6.26324 3.07795C7.7262 3.05637 8.96045 3.05637 9.01171 3.07363L9.09846 3.11248L9.10241 9.89732C9.11029 18.8445 9.14578 22.8239 9.22859 23.1217C9.29957 23.3893 9.41787 23.6483 9.5204 23.7648C9.60715 23.8641 10.3169 24.5806 10.6166 24.8697C10.727 24.9733 10.8217 25.0683 10.8335 25.0812C10.8493 25.0985 11.287 25.5387 11.9771 26.2207C12.0756 26.3199 12.3241 26.5616 12.5291 26.7645C12.7342 26.9673 12.9865 27.2177 13.0891 27.3256L13.2784 27.5198L13.235 27.809C13.1009 28.7456 13.7239 29.6692 14.6861 29.9411C14.974 30.0231 15.5576 30.0188 15.8336 29.9325C16.9377 29.5872 17.5292 28.4305 17.1191 27.4205C16.9693 27.045 16.7682 26.7861 16.4527 26.553C16.0071 26.2293 15.7508 26.1516 15.183 26.1732C14.9266 26.1861 14.6585 26.2077 14.5875 26.225C14.4495 26.2595 14.4456 26.2595 13.8107 25.6035C13.6569 25.4481 13.4282 25.2107 13.2981 25.0812C13.1679 24.9517 12.8406 24.6194 12.5686 24.3432C12.2965 24.0669 11.8193 23.5835 11.5039 23.2685C11.1884 22.9534 10.9163 22.6642 10.8966 22.6297C10.8769 22.5952 10.8848 21.0198 10.9124 18.9136C10.94 16.9066 10.9715 12.5819 10.9794 9.30602C10.9912 6.03013 11.0149 3.31965 11.0346 3.2808C11.0504 3.24196 11.1332 3.1729 11.216 3.12974C11.358 3.05205 11.5236 3.04773 13.9093 3.02615L16.4527 3.00457L16.6301 2.87941C16.9338 2.66361 17.1861 2.40896 17.269 2.23632L17.3439 2.06799L17.2414 1.83492C17.1822 1.70544 17.1073 1.58459 17.0718 1.56301C17.0048 1.52848 14.5441 1.49395 7.6986 1.44648C5.68358 1.42921 4.00374 1.40332 3.96825 1.38174C3.93276 1.36016 3.85783 1.24362 3.80263 1.11846C3.60941 0.682534 3.20325 0.319985 2.69456 0.125763C2.25292 -0.0382477 1.72452 -0.0425637 1.2947 0.11713Z" fill="#6F6F6F"/>
<path d="M21.0701 1.92987C20.9202 2.01619 20.731 2.13272 20.6481 2.18883C20.5653 2.24494 20.4865 2.29242 20.4707 2.29242C20.4313 2.29242 19.5519 2.93983 19.2719 3.17289C18.3926 3.91094 17.5408 4.84321 16.9612 5.70211C16.7601 5.99991 16.4446 6.55237 16.2829 6.88902L16.1567 7.14799V14.5716C16.1567 21.7622 16.1607 21.9995 16.2317 22.1765C16.5511 22.9448 17.596 24.2266 18.5227 24.9819C19.1221 25.4697 20.033 26.0221 20.731 26.3156L21.0267 26.4408H26.6262H32.2256L32.4228 26.3415C32.6594 26.2207 32.8645 26.0178 32.9354 25.8236C32.9827 25.7114 32.9946 25.2884 32.9985 23.7519C33.0025 21.8614 33.0025 21.8183 32.9157 21.542C32.4938 20.1911 31.6026 19.2761 30.3329 18.8963C29.6112 18.6805 29.5836 18.6762 25.6443 18.7107C23.6253 18.728 21.9337 18.7539 21.8863 18.7668C21.7759 18.7927 21.6024 19.0733 21.5551 19.2934C21.496 19.5869 21.6458 20.0487 21.8351 20.148C21.8666 20.1652 23.5622 20.1954 25.6009 20.2127C29.7493 20.2559 29.5521 20.2386 30.187 20.5752C30.459 20.7177 30.6168 20.8385 30.7942 21.0327C31.1333 21.4039 31.2477 21.7017 31.299 22.3276C31.3266 22.716 31.3542 24.054 31.3423 24.5978L31.3384 24.6971L26.3028 24.6841L21.2633 24.6712L20.936 24.5331C19.9778 24.1274 19.0235 23.2685 18.3098 22.1679C17.805 21.3867 17.8524 21.8312 17.8839 18.2144C17.9076 15.3399 17.9154 15.0766 17.9785 15.0075C18.1678 14.8047 18.014 14.809 22.9234 14.8349C26.709 14.8565 27.5489 14.8478 27.6278 14.8004C27.892 14.645 28.0379 13.881 27.8762 13.5271C27.8328 13.4365 27.7697 13.3372 27.7421 13.3113C27.7027 13.2768 26.3462 13.2466 23.0575 13.212C20.2538 13.1818 18.365 13.1473 18.2703 13.1214C18.1875 13.0955 18.0771 13.0265 18.0259 12.966L17.9312 12.8538L17.9352 11.3173C17.9391 10.4714 17.9509 9.26717 17.9667 8.63703C17.9943 7.312 17.9233 7.53211 18.574 6.75954C19.7727 5.34819 20.8177 4.35118 21.8154 3.66924L22.0914 3.47933L26.6577 3.44049C30.1396 3.41459 31.2359 3.41459 31.2714 3.45344C31.3384 3.52681 31.3621 5.77116 31.299 6.09055C31.1728 6.72933 30.7193 7.29042 30.0687 7.62275L29.8597 7.73065H25.9045H21.9494L21.8508 7.84719C21.6852 8.04141 21.6261 8.20974 21.6261 8.47302C21.6261 8.72766 21.6734 8.85283 21.8666 9.07726L21.9691 9.19811H26.0938C30.6838 9.19811 30.3526 9.21969 30.952 8.89599C31.7643 8.45575 32.407 7.76518 32.7107 6.99692C32.9906 6.28477 32.9946 6.25456 32.9946 4.20875C32.9946 2.17157 33.0064 2.25357 32.6673 2.01619L32.4622 1.87376L29.3076 1.82197C27.5726 1.79607 25.0725 1.77449 23.7476 1.77449H21.3422L21.0701 1.92987Z" fill="#6F6F6F"/>
</svg>
